<?xml version="1.0" encoding="utf-8"?>
<!-- Generator: Adobe Illustrator 26.5.0, SVG Export Plug-In . SVG Version: 6.00 Build 0)  -->
<svg version="1.1" id="Layer_1" xmlns="http://www.w3.org/2000/svg" xmlns:xlink="http://www.w3.org/1999/xlink" x="0px" y="0px"
	 viewBox="0 0 99.1 43.7" style="enable-background:new 0 0 99.1 43.7;" xml:space="preserve">
<style type="text/css">
	.st0{fill:#FCC235;}
	.st1{fill:#CD202C;}
	.st2{opacity:0.7;fill:#EFEFF0;enable-background:new    ;}
	.st3{fill:#DC2C2B;}
	.st4{fill:#EFEFF0;}
	.st5{fill:#494E53;}
	.st6{opacity:0.5;}
	.st7{fill:#A6A7AA;}
	.st8{fill:#2A4360;}
	.st9{fill:#436389;}
	.st10{opacity:0.5;fill:#FFFFFF;enable-background:new    ;}
	.st11{fill:#ABB4B4;}
	.st12{fill:#CDD7D6;}
	.st13{fill:#E8E1D8;}
	.st14{fill:#96938F;}
	.st15{fill:#DADBDC;}
	.st16{fill:#BCBEBF;}
	.st17{opacity:0.6;fill:#FFFFFF;enable-background:new    ;}
	.st18{fill-rule:evenodd;clip-rule:evenodd;fill:#E31F26;}
</style>
<g>
	<g>
		<g>
			<path class="st0" d="M92.6,9l-2.2-1.4c0,0,0,0,0,0c-0.6-0.1-1.1-0.4-1.7-0.1c-0.4,0.2-0.7,0.6-1.1,0.9c-2.7,2.6-4.9,4.6-6.7,6.3
				c-0.4,0.4-8,2.9-8.4,3.2c-3.1,2.8,2.6,2.6,2.5,2.8c-0.5,0.7,11.2,1.9,13.7,2.9l4.1-13.1C92.9,9.9,92.8,9.4,92.6,9z"/>
			<g>
				<path class="st1" d="M90.7,8C90.7,8,90.7,8,90.7,8l2.1,1.2c0-0.1-0.1-0.2-0.1-0.3l-2.3-1.4c0,0,0,0,0,0c-0.1,0-0.2,0-0.2-0.1
					C90.3,7.8,90.5,8,90.7,8z"/>
				<path class="st2" d="M72.9,18.3c0.4-0.3,7.9-2.8,8.4-3.2c1.8-1.6,4-3.7,6.7-6.3c0.2-0.1,0.4-0.7,0.6-1.2
					c-0.3,0.2-0.6,0.5-0.9,0.8c-2.7,2.6-4.9,4.6-6.7,6.3c-0.4,0.4-8,2.9-8.4,3.2c-1.1,1-1.1,1.7-0.6,2C71.9,19.6,72.1,19,72.9,18.3z
					"/>
			</g>
			<path class="st3" d="M92.6,9l-2.2-1.4c0,0,0,0,0,0c-0.5-0.1-0.9-0.3-1.4-0.2c0.2,0,0.3,0.1,0.4,0.1c1,0.4,2.8,1.1,2.4,2.4
				c-0.7,2.4-1.8,4.7-2.7,7c-0.8,2-1.5,4-2.3,6.1c0.8,0.2,1.4,0.3,1.8,0.5l4.1-13.1C92.9,9.9,92.8,9.4,92.6,9z"/>
		</g>
		<path class="st4" d="M7.8,14.8c10.4-6.7,12.6-5.8,20.5-4.4s30.1,6,38.4,7.5c8.3,1.5,16.9,3.5,17.7,3.7c0,0,2.8,0.9,6.3,2.7
			c0,0,1.6,0.7,2.2,1.2c0.6,0.5,0,2.2-1.2,2.9c-0.3,0.1-3.4,1.5-3.4,1.5s-1.6,0.8-5,1.4c-3,0.5-34.2,1.5-65.7-4.2
			c-9-1.6-14.8-6.9-14.4-9.1C3.5,15.8,7.8,14.8,7.8,14.8z"/>
		<path class="st0" d="M17.6,26.9c3.4,0.6,6.8,1.2,10.1,1.6c2.8,0,5.6-0.2,8.3-0.8c4-0.8,8-2,12-2.7c4.7-0.9,9.5-1.1,14.2-1.3
			s9.5-0.1,14.2,0.1c4.8,0.2,9.7,0.6,14.2,2c0.8,0.2,1.5,0.4,2.3,0.7c0.1-0.2,0.1-0.4,0.1-0.5c-0.1,0-0.1-0.1-0.2-0.1
			c-8.1-4.3-17.5-5.6-26.6-6.2c-9.7-0.7-19.4-0.4-29.1,0.4c-8.6,0.7-17.5,2-26.1,0.6c-1.9-0.3-6.5-1.1-8-3.1c0,0.1,0,0.2-0.1,0.2
			C2.8,20,8.6,25.2,17.6,26.9z"/>
		<g>
			<g>
				<path class="st5" d="M21.5,15.8c0.5-0.7,1-1.5,1.4-2.3c0.1-0.4,0.1-0.8-0.2-1.1c-0.7-0.2-1.6-0.3-2.5-0.5
					c-0.3-0.1-0.5-0.1-0.7-0.1l-4.3,4.1c1.2,0.3,2.4,0.6,3.6,0.8C19.9,16.9,20.7,16.9,21.5,15.8z"/>
				<path class="st5" d="M8.9,14.2c0,0,3.8-2.6,5-2.9c0.3-0.1,1.2-0.3,5.1,0.4l-4.2,4.1C13.1,15.4,10.8,14.8,8.9,14.2z"/>
			</g>
		</g>
		<g class="st6">
			<g>
				<path class="st5" d="M22.3,14.7c0.2-0.4,0.4-0.8,0.6-1.1c0.1-0.4,0.1-0.8-0.2-1.1c-0.7-0.2-1.6-0.3-2.5-0.5
					c-0.3-0.1-0.5-0.1-0.7-0.1l-1.8,1.8C19.1,13.9,20.7,14.3,22.3,14.7z"/>
				<path class="st5" d="M12,13.1c1.3-0.2,2.6,0,3.8,0.2c0.5,0.1,0.9,0.2,1.4,0.2l1.8-1.8c-3.9-0.6-4.9-0.4-5.1-0.4
					c-0.8,0.2-3,1.6-4.2,2.4C10.4,13.4,11.2,13.2,12,13.1z"/>
			</g>
		</g>
		<path class="st7" d="M30.8,22.9c-0.1,0-0.2-0.1-0.3-0.1l-2.6-0.5c-1.1-0.6-0.8-2.1-0.8-2.1c0-0.2,0.8-4.4,1.1-5.4
			c0.3-0.9,1-0.9,1.3-0.8c0.1,0,0.1,0,0.1,0l1.6,0.3l1.6,0.3h0c0.2,0,0.3,0.1,0.4,0.3c0.4,0.5,0.1,1.7,0.1,1.7
			c0,0.2-0.7,4.1-1.1,5.4C32,23,31.1,23,30.8,22.9z M27.9,22.2l2.6,0.5c0,0,0.1,0,0.2,0.1c0.4,0.1,1,0,1.4-0.8
			c0.4-1.2,1.1-5.3,1.1-5.4c0,0,0.2-1.1-0.1-1.6c-0.1-0.1-0.2-0.2-0.3-0.2h0l-1.6-0.3l-1.6-0.3c0,0-0.1,0-0.1,0
			c-0.3-0.1-0.9,0-1.2,0.7c-0.3,1-1.1,5.4-1.1,5.4C27.2,20.3,26.9,21.7,27.9,22.2z"/>
		<g>
			<g>
				<path class="st7" d="M37.8,18.9C37.7,18.9,37.7,18.9,37.8,18.9L37,18.7l0,0c-0.3-0.1-0.3-0.5-0.3-0.6c0,0,0.2-1.2,0.2-1.5
					c0.1-0.2,0.3-0.3,0.4-0.3c0,0,0,0,0,0l0.8,0.1l0,0c0.1,0,0.1,0,0.2,0.1c0.1,0.2,0.1,0.5,0,0.5c0,0-0.1,1.1-0.2,1.5
					C38.2,18.8,38,18.9,37.8,18.9z"/>
				<path class="st8" d="M37.7,18.7C37.7,18.7,37.7,18.7,37.7,18.7L37,18.6l0,0c-0.2-0.1-0.3-0.4-0.2-0.5c0,0,0.2-1,0.2-1.3
					c0.1-0.2,0.2-0.3,0.4-0.2c0,0,0,0,0,0l0.7,0.1l0,0c0.1,0,0.1,0,0.1,0.1c0.1,0.1,0,0.4,0,0.4c0,0-0.1,1-0.2,1.3
					C38.1,18.6,37.9,18.8,37.7,18.7z"/>
				<path class="st9" d="M37.1,17.3l1,0.1c0-0.1,0-0.2,0-0.2c0,0,0-0.3,0-0.4c0,0,0-0.1-0.1-0.1l0,0l-0.5-0.1c0,0,0,0,0,0
					c-0.1,0-0.2,0-0.3,0.3C37.1,17,37.1,17.2,37.1,17.3C37.1,17.3,37.1,17.3,37.1,17.3z"/>
			</g>
			<g>
				<path class="st7" d="M40.2,19.2C40.2,19.2,40.1,19.2,40.2,19.2l-0.8-0.1l0,0c-0.3-0.1-0.3-0.5-0.3-0.6c0,0,0.2-1.2,0.2-1.5
					c0.1-0.2,0.3-0.3,0.4-0.3c0,0,0,0,0,0l0.8,0.1l0,0c0.1,0,0.1,0,0.2,0.1c0.1,0.2,0.1,0.5,0,0.5c0,0-0.1,1.1-0.2,1.5
					C40.6,19.2,40.4,19.3,40.2,19.2z"/>
				<path class="st8" d="M40.2,19.1C40.2,19.1,40.1,19.1,40.2,19.1L39.5,19l0,0c-0.2-0.1-0.3-0.4-0.2-0.5c0,0,0.2-1,0.2-1.3
					c0.1-0.2,0.2-0.3,0.4-0.2c0,0,0,0,0,0l0.7,0.1l0,0c0.1,0,0.1,0,0.1,0.1c0.1,0.1,0,0.4,0,0.4c0,0-0.1,1-0.2,1.3
					C40.5,19,40.4,19.1,40.2,19.1z"/>
				<path class="st9" d="M39.6,17.7l1,0.1c0-0.1,0-0.2,0-0.2c0,0,0-0.3,0-0.4c0,0,0-0.1-0.1-0.1l0,0l-0.5-0.1c0,0,0,0,0,0
					c-0.1,0-0.2,0-0.3,0.3C39.6,17.4,39.6,17.5,39.6,17.7C39.6,17.7,39.6,17.7,39.6,17.7z"/>
			</g>
			<g>
				<path class="st7" d="M42.7,19.6C42.6,19.6,42.6,19.6,42.7,19.6l-0.8-0.1l0,0c-0.3-0.1-0.3-0.5-0.3-0.6c0,0,0.2-1.2,0.2-1.5
					c0.1-0.2,0.3-0.3,0.4-0.3c0,0,0,0,0,0l0.8,0.1l0,0c0.1,0,0.1,0,0.2,0.1c0.1,0.2,0.1,0.5,0,0.5c0,0-0.1,1.1-0.2,1.5
					C43.1,19.5,42.9,19.6,42.7,19.6z"/>
				<path class="st8" d="M42.6,19.5C42.6,19.5,42.6,19.5,42.6,19.5L42,19.4l0,0c-0.2-0.1-0.3-0.4-0.2-0.5c0,0,0.2-1,0.2-1.3
					c0.1-0.2,0.2-0.3,0.4-0.2c0,0,0,0,0,0l0.7,0.1l0,0c0.1,0,0.1,0,0.1,0.1c0.1,0.1,0,0.4,0,0.4c0,0-0.1,1-0.2,1.3
					C43,19.4,42.8,19.5,42.6,19.5z"/>
				<path class="st9" d="M42,18.1l1,0.1c0-0.1,0-0.2,0-0.2c0,0,0-0.3,0-0.4c0,0,0-0.1-0.1-0.1l0,0l-0.5-0.1c0,0,0,0,0,0
					c-0.1,0-0.2,0-0.3,0.3C42,17.8,42,17.9,42,18.1C42,18.1,42,18.1,42,18.1z"/>
			</g>
			<g>
				<path class="st7" d="M45.1,20C45.1,20,45,20,45.1,20l-0.8-0.1l0,0c-0.3-0.1-0.3-0.5-0.3-0.6c0,0,0.2-1.2,0.2-1.5
					c0.1-0.2,0.3-0.3,0.4-0.3c0,0,0,0,0,0l0.8,0.1l0,0c0.1,0,0.1,0,0.2,0.1c0.1,0.2,0.1,0.5,0,0.5c0,0-0.1,1.1-0.2,1.5
					C45.5,19.9,45.3,20,45.1,20z"/>
				<path class="st8" d="M45.1,19.9C45.1,19.8,45,19.8,45.1,19.9l-0.7-0.1l0,0c-0.2-0.1-0.3-0.4-0.2-0.5c0,0,0.2-1,0.2-1.3
					c0.1-0.2,0.2-0.3,0.4-0.2c0,0,0,0,0,0l0.7,0.1l0,0c0.1,0,0.1,0,0.1,0.1c0.1,0.1,0,0.4,0,0.4c0,0-0.1,1-0.2,1.3
					C45.5,19.8,45.3,19.9,45.1,19.9z"/>
				<path class="st9" d="M44.5,18.5l1,0.1c0-0.1,0-0.2,0-0.2c0,0,0-0.3,0-0.4c0,0,0-0.1-0.1-0.1l0,0l-0.5-0.1c0,0,0,0,0,0
					c-0.1,0-0.2,0-0.3,0.3C44.5,18.1,44.5,18.3,44.5,18.5C44.5,18.5,44.5,18.5,44.5,18.5z"/>
			</g>
			<g>
				<path class="st7" d="M47.5,20.4C47.5,20.4,47.5,20.4,47.5,20.4l-0.8-0.1l0,0c-0.3-0.1-0.3-0.5-0.3-0.6c0,0,0.2-1.2,0.2-1.5
					c0.1-0.2,0.3-0.3,0.4-0.3c0,0,0,0,0,0l0.8,0.1l0,0c0.1,0,0.1,0,0.2,0.1c0.1,0.2,0.1,0.5,0,0.5c0,0-0.1,1.1-0.2,1.5
					C48,20.3,47.8,20.4,47.5,20.4z"/>
				<path class="st8" d="M47.5,20.2C47.5,20.2,47.5,20.2,47.5,20.2l-0.7-0.1l0,0c-0.2-0.1-0.3-0.4-0.2-0.5c0,0,0.2-1,0.2-1.3
					c0.1-0.2,0.2-0.3,0.4-0.2c0,0,0,0,0,0l0.7,0.1l0,0c0.1,0,0.1,0,0.1,0.1c0.1,0.1,0,0.4,0,0.4c0,0-0.1,1-0.2,1.3
					C47.9,20.2,47.7,20.2,47.5,20.2z"/>
				<path class="st9" d="M46.9,18.8l1,0.1c0-0.1,0-0.2,0-0.2c0,0,0-0.3,0-0.4c0,0,0-0.1-0.1-0.1l0,0l-0.5-0.1c0,0,0,0,0,0
					c-0.1,0-0.2,0-0.3,0.3C47,18.5,46.9,18.7,46.9,18.8L46.9,18.8z"/>
			</g>
			<g>
				<path class="st7" d="M50,20.7C50,20.7,49.9,20.7,50,20.7l-0.8-0.1l0,0C49,20.5,48.9,20.1,49,20c0,0,0.2-1.2,0.2-1.5
					c0.1-0.2,0.3-0.3,0.4-0.3c0,0,0,0,0,0l0.8,0.1l0,0c0.1,0,0.1,0,0.2,0.1c0.1,0.2,0.1,0.5,0,0.5c0,0-0.1,1.1-0.2,1.5
					C50.4,20.7,50.2,20.8,50,20.7z"/>
				<path class="st8" d="M50,20.6C50,20.6,49.9,20.6,50,20.6l-0.7-0.1l0,0c-0.2-0.1-0.3-0.4-0.2-0.5c0,0,0.2-1,0.2-1.3
					c0.1-0.2,0.2-0.3,0.4-0.2c0,0,0,0,0,0l0.7,0.1l0,0c0.1,0,0.1,0,0.1,0.1c0.1,0.1,0,0.4,0,0.4c0,0-0.1,1-0.2,1.3
					C50.3,20.5,50.2,20.6,50,20.6z"/>
				<path class="st9" d="M49.4,19.2l1,0.1c0-0.1,0-0.2,0-0.2c0,0,0-0.3,0-0.4c0,0,0-0.1-0.1-0.1l0,0l-0.5-0.1c0,0,0,0,0,0
					c-0.1,0-0.2,0-0.3,0.3C49.4,18.9,49.4,19,49.4,19.2L49.4,19.2z"/>
			</g>
			<g>
				<path class="st7" d="M52.5,21.1C52.4,21.1,52.4,21.1,52.5,21.1L51.7,21l0,0c-0.3-0.1-0.3-0.5-0.3-0.6c0,0,0.2-1.2,0.2-1.5
					c0.1-0.2,0.3-0.3,0.4-0.3c0,0,0,0,0,0l0.8,0.1l0,0c0.1,0,0.1,0,0.2,0.1c0.1,0.2,0.1,0.5,0,0.5c0,0-0.1,1.1-0.2,1.5
					C52.9,21,52.7,21.1,52.5,21.1z"/>
				<path class="st8" d="M52.4,21C52.4,21,52.4,21,52.4,21l-0.7-0.1l0,0c-0.2-0.1-0.3-0.4-0.2-0.5c0,0,0.2-1,0.2-1.3
					c0.1-0.2,0.2-0.3,0.4-0.2c0,0,0,0,0,0l0.7,0.1l0,0c0.1,0,0.1,0,0.1,0.1c0.1,0.1,0,0.4,0,0.4c0,0-0.1,1-0.2,1.3
					C52.8,20.9,52.6,21,52.4,21z"/>
				<path class="st9" d="M51.8,19.6l1,0.1c0-0.1,0-0.2,0-0.2c0,0,0-0.3,0-0.4c0,0,0-0.1-0.1-0.1l0,0L52.2,19c0,0,0,0,0,0
					c-0.1,0-0.2,0-0.3,0.3C51.9,19.3,51.8,19.4,51.8,19.6L51.8,19.6z"/>
			</g>
			<g>
				<path class="st7" d="M54.9,21.5C54.9,21.5,54.8,21.5,54.9,21.5l-0.8-0.1l0,0c-0.3-0.1-0.3-0.5-0.3-0.6c0,0,0.2-1.2,0.2-1.5
					c0.1-0.2,0.3-0.3,0.4-0.3c0,0,0,0,0,0l0.8,0.1l0,0c0.1,0,0.1,0,0.2,0.1c0.1,0.2,0.1,0.5,0,0.5c0,0-0.1,1.1-0.2,1.5
					C55.3,21.4,55.1,21.5,54.9,21.5z"/>
				<path class="st8" d="M54.9,21.4C54.9,21.3,54.8,21.3,54.9,21.4l-0.7-0.1l0,0c-0.2-0.1-0.3-0.4-0.2-0.5c0,0,0.2-1,0.2-1.3
					c0.1-0.2,0.2-0.3,0.4-0.2c0,0,0,0,0,0l0.7,0.1l0,0c0.1,0,0.1,0,0.1,0.1c0.1,0.1,0,0.4,0,0.4c0,0-0.1,1-0.2,1.3
					C55.2,21.3,55.1,21.4,54.9,21.4z"/>
				<path class="st9" d="M54.3,20l1,0.1c0-0.1,0-0.2,0-0.2c0,0,0-0.3,0-0.4c0,0,0-0.1-0.1-0.1l0,0l-0.5-0.1c0,0,0,0,0,0
					c-0.1,0-0.2,0-0.3,0.3C54.3,19.7,54.3,19.8,54.3,20C54.3,20,54.3,20,54.3,20z"/>
			</g>
			<g>
				<path class="st7" d="M57.4,21.9C57.3,21.9,57.3,21.9,57.4,21.9l-0.8-0.1l0,0c-0.3-0.1-0.3-0.5-0.3-0.6c0,0,0.2-1.2,0.2-1.5
					c0.1-0.2,0.3-0.3,0.4-0.3c0,0,0,0,0,0l0.8,0.1l0,0c0.1,0,0.1,0,0.2,0.1c0.1,0.2,0.1,0.5,0,0.5c0,0-0.1,1.1-0.2,1.5
					C57.8,21.8,57.6,21.9,57.4,21.9z"/>
				<path class="st8" d="M57.3,21.7C57.3,21.7,57.3,21.7,57.3,21.7l-0.7-0.1l0,0c-0.2-0.1-0.3-0.4-0.2-0.5c0,0,0.2-1,0.2-1.3
					c0.1-0.2,0.2-0.3,0.4-0.2c0,0,0,0,0,0l0.7,0.1l0,0c0.1,0,0.1,0,0.1,0.1c0.1,0.1,0,0.4,0,0.4c0,0-0.1,1-0.2,1.3
					C57.7,21.7,57.5,21.8,57.3,21.7z"/>
				<path class="st9" d="M56.7,20.3l1,0.1c0-0.1,0-0.2,0-0.2c0,0,0-0.3,0-0.4c0,0,0-0.1-0.1-0.1l0,0l-0.5-0.1c0,0,0,0,0,0
					c-0.1,0-0.2,0-0.3,0.3C56.8,20,56.7,20.2,56.7,20.3C56.7,20.3,56.7,20.3,56.7,20.3z"/>
			</g>
			<g>
				<path class="st7" d="M59.8,22.2C59.8,22.2,59.8,22.2,59.8,22.2L59,22.1l0,0c-0.3-0.1-0.3-0.5-0.3-0.6c0,0,0.2-1.2,0.2-1.5
					c0.1-0.2,0.3-0.3,0.4-0.3c0,0,0,0,0,0l0.8,0.1l0,0c0.1,0,0.1,0,0.2,0.1c0.1,0.2,0.1,0.5,0,0.5c0,0-0.1,1.1-0.2,1.5
					C60.2,22.2,60,22.3,59.8,22.2z"/>
				<path class="st8" d="M59.8,22.1C59.8,22.1,59.7,22.1,59.8,22.1L59.1,22h0c-0.2-0.1-0.3-0.4-0.2-0.5c0,0,0.2-1,0.2-1.3
					c0.1-0.2,0.2-0.3,0.4-0.2c0,0,0,0,0,0l0.7,0.1l0,0c0.1,0,0.1,0,0.1,0.1c0.1,0.1,0,0.4,0,0.4c0,0-0.1,1-0.2,1.3
					C60.2,22,60,22.1,59.8,22.1z"/>
				<path class="st9" d="M59.2,20.7l1,0.1c0-0.1,0-0.2,0-0.2c0,0,0-0.3,0-0.4c0,0,0-0.1-0.1-0.1l0,0l-0.5-0.1c0,0,0,0,0,0
					c-0.1,0-0.2,0-0.3,0.3C59.2,20.4,59.2,20.6,59.2,20.7C59.2,20.7,59.2,20.7,59.2,20.7z"/>
			</g>
			<g>
				<path class="st7" d="M62.3,22.6C62.2,22.6,62.2,22.6,62.3,22.6l-0.8-0.1l0,0c-0.3-0.1-0.3-0.5-0.3-0.6c0,0,0.2-1.2,0.2-1.5
					c0.1-0.2,0.3-0.3,0.4-0.3c0,0,0,0,0,0l0.8,0.1l0,0c0.1,0,0.1,0,0.2,0.1c0.1,0.2,0.1,0.5,0,0.5c0,0-0.1,1.1-0.2,1.5
					C62.7,22.5,62.5,22.7,62.3,22.6z"/>
				<path class="st8" d="M62.2,22.5C62.2,22.5,62.2,22.5,62.2,22.5l-0.7-0.1l0,0c-0.2-0.1-0.3-0.4-0.2-0.5c0,0,0.2-1,0.2-1.3
					c0.1-0.2,0.2-0.3,0.4-0.2c0,0,0,0,0,0l0.7,0.1l0,0c0.1,0,0.1,0,0.1,0.1c0.1,0.1,0,0.4,0,0.4c0,0-0.1,1-0.2,1.3
					C62.6,22.4,62.4,22.5,62.2,22.5z"/>
				<path class="st9" d="M61.6,21.1l1,0.1c0-0.1,0-0.2,0-0.2c0,0,0-0.3,0-0.4c0,0,0-0.1-0.1-0.1l0,0L62,20.5c0,0,0,0,0,0
					c-0.1,0-0.2,0-0.3,0.3C61.7,20.8,61.6,20.9,61.6,21.1C61.6,21.1,61.6,21.1,61.6,21.1z"/>
			</g>
			<g>
				<path class="st7" d="M64.7,23C64.7,23,64.7,23,64.7,23L64,22.9l0,0c-0.3-0.1-0.3-0.5-0.3-0.6c0,0,0.2-1.2,0.2-1.5
					c0.1-0.2,0.3-0.3,0.4-0.3c0,0,0,0,0,0l0.8,0.1l0,0c0.1,0,0.1,0,0.2,0.1c0.1,0.2,0.1,0.5,0.1,0.5c0,0-0.1,1.1-0.2,1.5
					C65.1,22.9,64.9,23,64.7,23z"/>
				<path class="st8" d="M64.7,22.9C64.7,22.9,64.6,22.9,64.7,22.9L64,22.8l0,0c-0.2-0.1-0.3-0.4-0.2-0.5c0,0,0.2-1,0.2-1.3
					c0.1-0.2,0.2-0.3,0.4-0.2c0,0,0,0,0,0l0.7,0.1l0,0c0.1,0,0.1,0,0.1,0.1c0.1,0.1,0.1,0.4,0.1,0.4c0,0-0.1,1-0.2,1.3
					C65.1,22.8,64.9,22.9,64.7,22.9z"/>
				<path class="st9" d="M64.1,21.5l1,0.1c0-0.1,0-0.2,0-0.2c0,0,0.1-0.3,0-0.4c0,0-0.1-0.1-0.1-0.1l0,0l-0.5-0.1c0,0,0,0,0,0
					c-0.1,0-0.2,0-0.3,0.3C64.1,21.2,64.1,21.3,64.1,21.5C64.1,21.5,64.1,21.5,64.1,21.5z"/>
			</g>
			<g>
				<path class="st7" d="M67.2,23.4C67.1,23.4,67.1,23.4,67.2,23.4l-0.8-0.1l0,0c-0.3-0.1-0.3-0.5-0.3-0.6c0,0,0.2-1.2,0.2-1.5
					c0.1-0.2,0.3-0.3,0.4-0.3c0,0,0,0,0,0l0.8,0.1l0,0c0.1,0,0.1,0,0.2,0.1c0.1,0.2,0.1,0.5,0.1,0.5c0,0-0.1,1.1-0.2,1.5
					C67.6,23.3,67.4,23.4,67.2,23.4z"/>
				<path class="st8" d="M67.1,23.2C67.1,23.2,67.1,23.2,67.1,23.2l-0.7-0.1l0,0c-0.2-0.1-0.3-0.4-0.2-0.5c0,0,0.2-1,0.2-1.3
					c0.1-0.2,0.2-0.3,0.4-0.2c0,0,0,0,0,0l0.7,0.1l0,0c0.1,0,0.1,0,0.1,0.1c0.1,0.1,0.1,0.4,0.1,0.4c0,0-0.1,1-0.2,1.3
					C67.5,23.2,67.3,23.3,67.1,23.2z"/>
				<path class="st9" d="M66.5,21.9l1,0.1c0-0.1,0-0.2,0-0.2c0,0,0.1-0.3,0-0.4c0,0-0.1-0.1-0.1-0.1l0,0l-0.5-0.1c0,0,0,0,0,0
					c-0.1,0-0.2,0-0.3,0.3C66.6,21.5,66.6,21.7,66.5,21.9C66.5,21.9,66.5,21.9,66.5,21.9z"/>
			</g>
			<g>
				<path class="st7" d="M69.6,23.8C69.6,23.8,69.6,23.8,69.6,23.8l-0.8-0.1l0,0c-0.3-0.1-0.3-0.5-0.3-0.6c0,0,0.2-1.2,0.2-1.5
					c0.1-0.2,0.3-0.3,0.4-0.3c0,0,0,0,0,0l0.8,0.1l0,0c0.1,0,0.1,0,0.2,0.1c0.1,0.2,0.1,0.5,0.1,0.5c0,0-0.1,1.1-0.2,1.5
					C70,23.7,69.8,23.8,69.6,23.8z"/>
				<path class="st8" d="M69.6,23.6C69.5,23.6,69.5,23.6,69.6,23.6l-0.7-0.1l0,0c-0.2-0.1-0.3-0.4-0.2-0.5c0,0,0.2-1,0.2-1.3
					c0.1-0.2,0.2-0.3,0.4-0.2c0,0,0,0,0,0l0.7,0.1l0,0c0.1,0,0.1,0,0.1,0.1c0.1,0.1,0.1,0.4,0.1,0.4c0,0-0.1,1-0.2,1.3
					C70,23.5,69.8,23.6,69.6,23.6z"/>
				<path class="st9" d="M69,22.2l1,0.1c0-0.1,0-0.2,0-0.2c0,0,0.1-0.3,0-0.4c0,0-0.1-0.1-0.1-0.1l0,0l-0.5-0.1c0,0,0,0,0,0
					c-0.1,0-0.2,0-0.3,0.3C69,21.9,69,22.1,69,22.2C69,22.2,69,22.2,69,22.2z"/>
			</g>
			<g>
				<path class="st7" d="M72.1,24.1C72,24.1,72,24.1,72.1,24.1L71.3,24l0,0C71,23.9,71,23.5,71,23.4c0,0,0.2-1.2,0.2-1.5
					c0.1-0.2,0.3-0.3,0.4-0.3c0,0,0,0,0,0l0.8,0.1l0,0c0.1,0,0.1,0,0.2,0.1c0.1,0.2,0.1,0.5,0.1,0.5c0,0-0.1,1.1-0.2,1.5
					C72.5,24.1,72.3,24.2,72.1,24.1z"/>
				<path class="st8" d="M72,24C72,24,72,24,72,24l-0.7-0.1l0,0c-0.2-0.1-0.3-0.4-0.2-0.5c0,0,0.2-1,0.2-1.3
					c0.1-0.2,0.2-0.3,0.4-0.2c0,0,0,0,0,0l0.7,0.1l0,0c0.1,0,0.1,0,0.1,0.1c0.1,0.1,0.1,0.4,0.1,0.4c0,0-0.1,1-0.2,1.3
					C72.4,23.9,72.2,24,72,24z"/>
				<path class="st9" d="M71.4,22.6l1,0.1c0-0.1,0-0.2,0-0.2c0,0,0.1-0.3,0-0.4c0,0-0.1-0.1-0.1-0.1l0,0L71.8,22c0,0,0,0,0,0
					c-0.1,0-0.2,0-0.3,0.3C71.5,22.3,71.4,22.4,71.4,22.6C71.4,22.6,71.4,22.6,71.4,22.6z"/>
			</g>
			<g>
				<path class="st7" d="M74.5,24.5C74.5,24.5,74.4,24.5,74.5,24.5l-0.8-0.1l0,0c-0.3-0.1-0.3-0.5-0.3-0.6c0,0,0.2-1.2,0.2-1.5
					c0.1-0.2,0.3-0.3,0.4-0.3c0,0,0,0,0,0l0.8,0.1l0,0c0.1,0,0.1,0,0.2,0.1c0.1,0.2,0.1,0.5,0.1,0.5c0,0-0.1,1.1-0.2,1.5
					C74.9,24.4,74.8,24.5,74.5,24.5z"/>
				<path class="st8" d="M74.5,24.4C74.5,24.4,74.4,24.4,74.5,24.4l-0.7-0.1l0,0c-0.2-0.1-0.3-0.4-0.2-0.5c0,0,0.2-1,0.2-1.3
					c0.1-0.2,0.2-0.3,0.4-0.2c0,0,0,0,0,0l0.7,0.1l0,0c0.1,0,0.1,0,0.1,0.1c0.1,0.1,0.1,0.4,0.1,0.4c0,0-0.1,1-0.2,1.3
					C74.9,24.3,74.7,24.4,74.5,24.4z"/>
				<path class="st9" d="M73.9,23l1,0.1c0-0.1,0-0.2,0-0.2c0,0,0.1-0.3,0-0.4c0,0-0.1-0.1-0.1-0.1l0,0l-0.5-0.1c0,0,0,0,0,0
					c-0.1,0-0.2,0-0.3,0.3C73.9,22.7,73.9,22.8,73.9,23L73.9,23z"/>
			</g>
		</g>
		<g>
			<path class="st0" d="M90.2,27.7c-2.2,0.7-4.5,1.2-6.8,1.7c-4.7,1-9.5,1.1-14.3,1.2c-4.9,0.1-9.8,0.3-14.6,0.3c-1,0-1.9,0-2.8,0
				c17,1,29.8,0.5,31.7,0.2c3.5-0.6,5-1.4,5-1.4s3.1-1.3,3.4-1.5c0.7-0.4,1.1-1.1,1.3-1.7C92.1,27.1,91.1,27.5,90.2,27.7z"/>
		</g>
		<path class="st4" d="M15.8,10.9c0,0,3.1-1.4,7.3-1s36.4,6.9,36.4,6.9l-36.1-6.1c0,0-1.7-0.4-2.7,0.8L15.8,10.9z"/>
		<path class="st10" d="M8.7,21.7C9,21.1,9.3,20.6,9.4,20c0.2-2,0.1-4.1-1.5-4.8c0,0-3.5,0.4-4.6,2.5c0,0-0.7,1.5,4.2,5
			C8.1,22.5,8.4,22.1,8.7,21.7z"/>
		<path class="st4" d="M84.7,26.1c-1.6,0-3.3-0.2-4.9,0.2c-1.5,0.4-2.6,1.5-4,1.9c-1.4,0.4-3.1,0.3-4.6,0.2c-2,0-4.1,0-6.1-0.1
			c-2.2,0-4.4-0.1-6.6,0c-1.8,0.1-3.8,0.1-5.4-0.8c-0.8-0.5-1.6-1.2-2.5-1.6c-1-0.5-2.1-0.8-3.2-1c-2.2-0.5-4.5-0.7-6.8-0.9
			c-1.1-0.1-2.2-0.2-3.2-0.2c-1,0-2.1,0.1-2.8,0.9c-0.7,0.9-0.3,2-1.7,2.1c-3.9,0.5-7.7-0.7-11.5-1.6c-4-1-7.9-2.1-11.7-3.6
			c-2-0.8-4.1-1.7-5.7-3.1c-0.4-0.3-0.7-0.7-1-1.1c0,0,0,0.1,0,0.1c-0.3,2.2,5.5,7.4,14.4,9.1C49,32.6,80.2,31.5,83.2,31
			c3.5-0.6,5-1.4,5-1.4s3.1-1.3,3.4-1.5c0.8-0.5,1.4-1.5,1.5-2.2C90.3,26,87.5,26.1,84.7,26.1z"/>
		<g>
			<g>
				<path class="st11" d="M47.4,28.4c0,0-5.5-1.7-9-2.1l-1.1,8.6l0,0L37,35.8c0,0,4.1,0.7,9.2,0.3c0.5,0.1,1.3-1.5,1.6-3.6
					S47.9,28.5,47.4,28.4z"/>
				<path class="st12" d="M39.5,31.6c1.2,0.2,2.5,0.4,3.7,0.7c1.5,0.4,3,0.7,4.5,1.2c0.1-0.3,0.2-0.6,0.2-1c0.3-2.1,0-4.1-0.5-4.2
					c0,0-5.5-1.7-9-2.1l-0.7,5C38.3,31.4,38.9,31.5,39.5,31.6z"/>
				<path class="st12" d="M42.1,35.6c-1,0-1.9-0.1-2.9-0.1c-0.7,0-1.3-0.2-1.9-0.2L37,35.9c0,0,4.1,0.7,9.2,0.3
					c0.2,0,0.4-0.2,0.6-0.5C45.2,35.6,43.6,35.6,42.1,35.6z"/>
				<path class="st13" d="M38.7,31.2c-0.4,2.6-1.2,4.7-1.7,4.6s-0.7-2.3-0.2-4.9c0.4-2.6,1.2-4.7,1.7-4.6
					C39,26.4,39.1,28.6,38.7,31.2z"/>
				<g>
					<path class="st14" d="M38.2,27.9c0-0.1-0.1-0.2-0.2-0.2c-0.3,0-0.7,1.4-1,3.2c-0.3,1.8-0.3,3.3,0,3.4c0.1,0,0.2-0.1,0.2-0.2
						c-0.1-0.5-0.1-1.7,0.1-3.1C37.7,29.6,38,28.4,38.2,27.9z"/>
					<path class="st14" d="M38.2,27.9c-0.3,0.5-0.6,1.6-0.8,3c-0.2,1.4-0.3,2.6-0.1,3.1c0.3-0.5,0.6-1.6,0.8-3
						C38.3,29.7,38.4,28.4,38.2,27.9z"/>
				</g>
			</g>
			<g>
				<path class="st11" d="M50.2,32.3c0,0-4.7-1.4-7.6-1.8l-1,7.3l0,0l-0.3,0.8c0,0,3.4,0.6,7.8,0.2c0.4,0.1,1.1-1.2,1.4-3
					C50.8,34,50.6,32.4,50.2,32.3z"/>
				<path class="st12" d="M43.4,35.1c1.1,0.2,2.1,0.3,3.2,0.6c1.3,0.3,2.5,0.6,3.8,1c0.1-0.3,0.1-0.5,0.2-0.8c0.3-1.8,0-3.5-0.4-3.5
					c0,0-4.7-1.4-7.6-1.8L42,34.8C42.5,34.9,43,35,43.4,35.1z"/>
				<path class="st12" d="M45.6,38.4c-0.8,0-1.6-0.1-2.5-0.1c-0.5,0-1.1-0.1-1.6-0.2l-0.2,0.5c0,0,3.4,0.6,7.8,0.2
					c0.1,0,0.3-0.1,0.5-0.4C48.3,38.4,47,38.5,45.6,38.4z"/>
				<path class="st13" d="M42.8,34.7c-0.3,2.2-1,4-1.4,3.9c-0.5-0.1-0.5-1.9-0.2-4.2c0.3-2.2,1-4,1.4-3.9
					C43,30.6,43.1,32.5,42.8,34.7z"/>
				<g>
					<path class="st14" d="M42.4,32c0-0.1-0.1-0.2-0.1-0.2c-0.2,0-0.6,1.2-0.9,2.7c-0.2,1.5-0.2,2.8,0,2.8c0.1,0,0.1-0.1,0.2-0.2
						c-0.1-0.4-0.1-1.5,0.1-2.7C41.9,33.3,42.2,32.4,42.4,32z"/>
					<path class="st14" d="M42.4,32c-0.2,0.4-0.5,1.4-0.7,2.5c-0.2,1.2-0.2,2.2-0.1,2.7c0.2-0.4,0.5-1.4,0.7-2.5
						C42.5,33.4,42.5,32.4,42.4,32z"/>
				</g>
			</g>
			<g>
				<path class="st12" d="M49.5,25.5l-11.8-1.8c0,0-3.1-0.2-1.9,1.5C37,26.9,50,36.5,50,36.5s1.3,1,3.2,1.3c0,0,8.7,2,6.9-0.1
					c-1.8-2-7.7-10.4-7.7-10.4S51,25.7,49.5,25.5z"/>
				<path class="st15" d="M49.5,25.5l-11.8-1.8c0,0-3.1-0.2-1.9,1.5C37,26.9,50,36.5,50,36.5s1.3,1,3.2,1.3c0,0,8.7,2,6.9-0.1
					c-1.8-2-7.7-10.4-7.7-10.4S51,25.7,49.5,25.5z"/>
				<path class="st16" d="M60.1,37.7c-1.8-2-7.7-10.4-7.7-10.4s-1.4-1.6-2.9-1.8l-1.4-0.2c1.4,0.8,2.5,2,3.6,3.3
					c1.6,1.9,3.1,3.9,4.8,5.8c0.7,0.8,1.3,1.5,1.9,2.4c0.3,0.5,0.7,1,0.6,1.6c0,0.1-0.1,0.2-0.2,0.3C60,38.7,60.7,38.4,60.1,37.7z"
					/>
				<path class="st17" d="M39.4,24.3c0,0-3.6-0.7-2.5,0.7s11.8,9.9,11.8,9.9s2.3,2.2,4.5,2.3c0,0-2.5-1.2-3.7-2.5
					c-1.2-1.3-9.9-8.8-9.9-8.8S37.9,24.6,39.4,24.3z"/>
			</g>
		</g>
		<g>
			<g>
				<path class="st3" d="M88.1,27l-7.7-0.3c0,0-0.9,0-1.4,0.5c-0.4,0.4-0.7,1.1-0.1,1.6c1,0.8,10.7,4.5,10.7,4.5s2,0.7,3.6,0.3
					c0,0,4.3,0,3-1s-6-5-6-5S89,27,88.1,27z"/>
				<path class="st0" d="M88.1,27l-7.7-0.3c0,0-2.4,0.2-1.1,1.3c1,0.8,10.2,4.9,10.2,4.9s0.9,0.4,2.2,0.4c0,0,5.8,0.3,4.4-0.6
					c-1.3-1-6-5-6-5S89,27,88.1,27z"/>
			</g>
			<path class="st2" d="M85.6,27.1L81.1,27c0,0-1.7,0-1.4,0.7l9.5,4.7l-7.8-4.5c0,0-0.7-0.3,0.1-0.5C82.3,27.2,85.6,27.1,85.6,27.1z
				"/>
		</g>
	</g>
	<g id="layer1" transform="translate(-68.739144,-156.22376)">
		<g id="g36" transform="matrix(0.57869358,0,0,-0.57869358,107.8483,166.22831)">
			<path id="path38" class="st18" d="M49.3-32.5l0.1,0.4c0,0.1,0.1,0.1,0.1,0.1c0,0,0.1,0,0.1-0.1c0,0,0,0,0,0
				c0.1-0.2,0.4-0.4,0.7-0.3c0.3,0,0.4,0.2,0.4,0.4c0,0.1-0.1,0.2-0.1,0.2c0,0-0.6,0.8-0.6,0.8c-0.1,0.2-0.2,0.4-0.2,0.6
				c0,0.7,0.5,1.2,1.3,1.3c0.5,0,0.9-0.1,1.2-0.4L52.2-30c0-0.1-0.1-0.1-0.1-0.1c0,0-0.1,0-0.1,0.1c0,0,0,0,0,0
				c-0.1,0.2-0.3,0.4-0.7,0.3c-0.3,0-0.5-0.2-0.4-0.4c0,0,0-0.1,0-0.1c0-0.1,0.1-0.2,0.1-0.2l0.3-0.4l0.2-0.2
				c0.1-0.2,0.3-0.4,0.3-0.6c0-0.7-0.5-1.2-1.3-1.3C50-32.9,49.6-32.8,49.3-32.5 M55.5-32.7l0.1,0.4c0,0.1,0.1,0.1,0.1,0.1
				c0,0,0.1,0,0.1-0.1c0,0,0,0,0,0c0.1-0.2,0.4-0.4,0.7-0.4c0.3,0,0.4,0.2,0.4,0.4c0,0.1-0.1,0.2-0.1,0.2c0,0-0.6,0.8-0.6,0.8
				c-0.1,0.2-0.2,0.4-0.2,0.6c0,0.7,0.5,1.2,1.3,1.3c0.5,0,0.9-0.1,1.2-0.4l-0.1-0.4c0-0.1-0.1-0.1-0.1-0.1c0,0-0.1,0-0.1,0.1
				c0,0,0,0,0,0c-0.1,0.2-0.3,0.4-0.7,0.3c-0.3,0-0.5-0.2-0.4-0.4c0,0,0-0.1,0-0.1c0-0.1,0.1-0.2,0.1-0.2l0.3-0.4l0.2-0.2
				c0.1-0.2,0.3-0.4,0.3-0.6c0-0.7-0.5-1.2-1.3-1.3C56.2-33,55.8-32.9,55.5-32.7 M54-29.8l-0.7-1.5c-0.1-0.1-0.2-0.4-0.2-0.6
				c0-0.1,0.1-0.2,0.2-0.3c0,0,0.1,0,0.1,0c0.2,0,0.4,0.1,0.4,0.3l1.1,2.5l1.2,0c0,0,0,0,0,0c0.1,0,0.1-0.1,0.1-0.1
				c0,0,0-0.1-0.1-0.1c-0.1,0-0.1,0-0.2-0.1l-0.7-1.4c-0.3-0.8-1.2-1.4-2.1-1.4c-0.3,0-0.6,0.1-0.9,0.2c-0.2,0.1-0.4,0.4-0.4,0.7
				c0,0.3,0.1,0.6,0.2,0.9l0.5,1.1c0,0,0,0,0,0c0,0,0,0.1,0,0.1c0,0-0.1,0.1-0.1,0.1c0,0.1,0.1,0.1,0.1,0.1l1.4,0c0,0,0,0,0,0
				c0.1,0,0.1-0.1,0.1-0.1c0,0,0-0.1-0.1-0.1C54.1-29.6,54-29.7,54-29.8 M47.2-30.7l0.7,0L47.7-30L47.2-30.7z M36.2-32l1.3,2.8
				c0,0,0,0,0,0c0,0,0,0.1,0,0.1c0,0-0.1,0.1-0.1,0.1c0,0.1,0.1,0.1,0.1,0.1l1.3,0l0.7,0c0.2,0,0.4-0.1,0.5-0.3
				c0-0.1,0.1-0.2,0.1-0.4c0-0.2-0.1-0.4-0.2-0.6c-0.2-0.3-0.6-0.6-1.1-0.5l-0.9,0l-0.4-0.9c0,0,0,0,0,0c0,0,0,0,0,0
				c0,0,0.1-0.1,0.1-0.1c0-0.1-0.1-0.1-0.1-0.1L36.2-32z M38.1-30.5l0.5,1.2c0,0,0.1,0,0.1,0c0.1,0,0.1,0,0.1,0
				c0.2-0.1,0.2-0.5,0-0.8c-0.2-0.2-0.3-0.4-0.6-0.4H38.1z M41.2-30.7l-0.5-1.1l1.1,0c0.1,0,0.2,0,0.2,0.1c0,0,0.1,0.1,0.1,0.1
				c0.1,0,0.1,0,0.1-0.1c0,0,0,0,0,0l-0.2-0.4l-2.8,0.1l1.3,2.7c0,0,0,0,0,0c0,0,0,0.1-0.1,0.1c0,0-0.1,0.1-0.1,0.1
				c0,0.1,0,0.1,0.1,0.1l2.5-0.1l-0.2-0.4c0-0.1-0.1-0.1-0.2-0.1c0,0-0.1,0.1-0.1,0.1c0,0,0,0.1,0,0.1c0,0,0,0,0,0l-0.8,0l-0.5-1
				l0.7,0c0.1,0,0.1,0,0.2,0.1c0,0,0.1,0.1,0.1,0.1c0.1,0,0.1,0,0.1-0.1c0,0,0,0,0,0l-0.2-0.4c0-0.1-0.1-0.1-0.2-0.1
				c0,0,0,0.1,0,0.1c0,0,0,0.1,0,0.1c0,0,0,0,0,0L41.2-30.7z M48.1-32.3c-0.1,0-0.1,0-0.1,0.1c0,0,0,0.1,0.1,0.1c0,0,0,0,0,0.1
				c0,0,0,0,0,0l-0.2,0.9l-1,0L46.3-32c0,0,0,0,0,0c0,0,0-0.1,0-0.1c0,0,0.1-0.1,0.1-0.1c0-0.1-0.1-0.1-0.1-0.1l-0.6,0c0,0,0,0,0,0
				c-0.1,0-0.1,0.1-0.1,0.2c0,0,0.1,0.1,0.1,0.1c0.1,0,0.1,0,0.2,0.1l1.8,2.7l1.1,0c0.1,0,0.1,0,0.1-0.1c0,0,0-0.1-0.1-0.1
				c0,0,0,0,0-0.1l0.6-2.8L48.1-32.3z M46.1-30.7C46.2-30.7,46.2-30.7,46.1-30.7c0.1,0,0.1-0.1,0.1-0.2c0,0,0-0.1-0.1-0.1
				c-0.1,0-0.1,0-0.2-0.1l-0.6-1.2l-1.1,0l0,0.1c-0.3-0.1-0.6-0.2-0.9-0.1c-0.5,0-1,0.5-1,1c0,0,0,0.1,0,0.1
				c0.2,1.2,1.2,2.1,2.5,2.1c0.6,0,0.9-0.1,1.4-0.4l-0.1-0.3c0,0,0,0,0,0c0,0-0.1-0.1-0.1,0c-0.1,0,0,0.1-0.1,0.1
				c0,0.1-0.1,0.1-0.1,0.2c-0.2,0.1-0.3,0.1-0.5,0.1c-0.3,0-0.6-0.1-0.8-0.3c-0.5-0.4-0.8-1-0.9-1.6c0,0,0,0,0-0.1
				c0-0.2,0.2-0.5,0.4-0.5c0.3,0,0.5,0.2,0.6,0.4l0.2,0.5c0,0,0,0,0,0c0,0.1,0,0.1-0.1,0.1c0,0-0.1,0.1-0.1,0.1c0,0.1,0,0.1,0.1,0.1
				"/>
		</g>
	</g>
</g>
</svg>
